 <svg
                width="24"
                height="24"
                viewBox="0 0 24 24"
                fill="none"
                xmlns="http://www.w3.org/2000/svg"
              >
                <path
                  d="M10.8959 14.9822C10.7512 15.1472 10.6122 15.3055 10.4734 15.4641C8.87091 17.2957 7.26845 19.1273 5.66599 20.9589C5.40895 21.2527 5.15102 21.5457 4.89582 21.8411C4.85349 21.8901 4.81065 21.9132 4.74381 21.913C3.68919 21.911 2.63457 21.9116 1.57996 21.9114C1.55277 21.9114 1.52559 21.9086 1.47655 21.9058C4.09906 18.9072 6.70923 15.9229 9.32716 12.9295C6.56897 9.32149 3.8118 5.71485 1.04349 2.09364C1.09394 2.09128 1.12415 2.08869 1.15443 2.08869C3.39588 2.08847 5.63733 2.08884 7.87885 2.08691C7.95013 2.08691 7.9929 2.1102 8.03507 2.16608C9.58472 4.21861 11.1358 6.26997 12.6869 8.32139C12.7095 8.35125 12.7334 8.38016 12.7642 8.41911C12.7905 8.39087 12.8135 8.36722 12.8352 8.34238C13.5752 7.49633 14.3149 6.65012 15.0548 5.80407C16.118 4.58827 17.1815 3.37285 18.2435 2.15603C18.2871 2.10613 18.3322 2.08721 18.3973 2.08728C19.4457 2.08891 20.494 2.08839 21.5423 2.08839C21.5732 2.08839 21.6041 2.08839 21.6322 2.08839C21.6356 2.10081 21.6369 2.10377 21.6372 2.10687C21.6374 2.10975 21.637 2.11286 21.6362 2.11559C21.6352 2.11855 21.6339 2.12166 21.6319 2.12395C19.1968 4.90863 16.7618 7.69324 14.3206 10.4848C17.1963 14.288 20.0712 18.09 22.9565 21.9059C22.9065 21.9084 22.8762 21.9113 22.846 21.9113C20.6612 21.9115 18.4763 21.9113 16.2915 21.9127C16.2256 21.9127 16.1825 21.8942 16.1416 21.8406C14.9902 20.3316 13.837 18.824 12.6841 17.3162C12.1047 16.5585 11.5251 15.8009 10.9456 15.0434C10.9323 15.026 10.9182 15.0094 10.8961 14.982L10.8959 14.9822ZM18.985 19.8982C18.947 19.8464 18.9235 19.8135 18.8991 19.7812C17.9632 18.5433 17.0273 17.3054 16.0913 16.0675C14.394 13.8228 12.6966 11.578 10.9993 9.33332C9.67225 7.57823 8.345 5.82321 7.01938 4.06701C6.9792 4.01379 6.9385 3.9911 6.87136 3.99139C6.27322 3.99376 5.67507 3.99272 5.07693 3.99294C5.0465 3.99294 5.01614 3.9959 4.96835 3.99834C4.99657 4.037 5.01555 4.06413 5.03564 4.09037C5.51937 4.72303 6.0034 5.35554 6.48705 5.98819C8.17335 8.19381 9.85949 10.3996 11.5458 12.6052C13.387 15.0133 15.2286 17.4212 17.0687 19.8302C17.1072 19.8806 17.1468 19.8998 17.2098 19.8995C17.767 19.8972 18.3242 19.8982 18.8814 19.8982C18.9088 19.8982 18.9361 19.8982 18.9849 19.8982L18.985 19.8982Z"
                  fill="white"
                />
              </svg>